<mxfile host="app.diagrams.net" modified="2022-03-14T06:23:07.746Z" agent="5.0 (Macintosh; Intel Mac OS X 10_15_7) AppleWebKit/537.36 (KHTML, like Gecko) Chrome/96.0.4664.110 Safari/537.36" etag="C7BH5vEktTYP6QbBG0yI" version="16.2.7" type="github">
  <diagram id="CbM1zz8WMH_onD2LZk93" name="Page-1">
    <mxGraphModel dx="1018" dy="659" grid="1" gridSize="10" guides="1" tooltips="1" connect="1" arrows="1" fold="1" page="1" pageScale="1" pageWidth="827" pageHeight="1169" math="0" shadow="0">
      <root>
        <mxCell id="0" />
        <mxCell id="1" parent="0" />
        <mxCell id="uFnU2rJ3wCaOMNAWH8qr-7" value="Bug报告" style="shape=document;whiteSpace=wrap;html=1;boundedLbl=1;" vertex="1" parent="1">
          <mxGeometry x="200" y="155" width="90" height="50" as="geometry" />
        </mxCell>
        <mxCell id="uFnU2rJ3wCaOMNAWH8qr-12" value="源文件" style="strokeWidth=2;html=1;shape=mxgraph.flowchart.multi-document;whiteSpace=wrap;" vertex="1" parent="1">
          <mxGeometry x="360" y="150" width="88" height="60" as="geometry" />
        </mxCell>
        <mxCell id="uFnU2rJ3wCaOMNAWH8qr-14" value="" style="shape=singleArrow;whiteSpace=wrap;html=1;direction=south;" vertex="1" parent="1">
          <mxGeometry x="235" y="210" width="20" height="30" as="geometry" />
        </mxCell>
        <mxCell id="uFnU2rJ3wCaOMNAWH8qr-15" value="" style="shape=singleArrow;whiteSpace=wrap;html=1;direction=south;" vertex="1" parent="1">
          <mxGeometry x="394" y="210" width="20" height="30" as="geometry" />
        </mxCell>
        <mxCell id="uFnU2rJ3wCaOMNAWH8qr-16" value="Bug报告" style="swimlane;fontStyle=0;childLayout=stackLayout;horizontal=1;startSize=30;horizontalStack=0;resizeParent=1;resizeParentMax=0;resizeLast=0;collapsible=1;marginBottom=0;" vertex="1" parent="1">
          <mxGeometry x="80" y="350" width="114" height="90" as="geometry" />
        </mxCell>
        <mxCell id="uFnU2rJ3wCaOMNAWH8qr-17" value="摘要" style="text;strokeColor=none;fillColor=none;align=center;verticalAlign=middle;spacingLeft=4;spacingRight=4;overflow=hidden;points=[[0,0.5],[1,0.5]];portConstraint=eastwest;rotatable=0;" vertex="1" parent="uFnU2rJ3wCaOMNAWH8qr-16">
          <mxGeometry y="30" width="114" height="30" as="geometry" />
        </mxCell>
        <mxCell id="uFnU2rJ3wCaOMNAWH8qr-18" value="描述" style="text;strokeColor=none;fillColor=none;align=center;verticalAlign=middle;spacingLeft=4;spacingRight=4;overflow=hidden;points=[[0,0.5],[1,0.5]];portConstraint=eastwest;rotatable=0;" vertex="1" parent="uFnU2rJ3wCaOMNAWH8qr-16">
          <mxGeometry y="60" width="114" height="30" as="geometry" />
        </mxCell>
        <mxCell id="uFnU2rJ3wCaOMNAWH8qr-20" value="源文件" style="swimlane;fontStyle=0;childLayout=stackLayout;horizontal=1;startSize=30;horizontalStack=0;resizeParent=1;resizeParentMax=0;resizeLast=0;collapsible=1;marginBottom=0;" vertex="1" parent="1">
          <mxGeometry x="67" y="470" width="140" height="120" as="geometry">
            <mxRectangle x="520" y="280" width="70" height="30" as="alternateBounds" />
          </mxGeometry>
        </mxCell>
        <mxCell id="uFnU2rJ3wCaOMNAWH8qr-21" value="函数1" style="text;strokeColor=none;fillColor=none;align=center;verticalAlign=middle;spacingLeft=4;spacingRight=4;overflow=hidden;points=[[0,0.5],[1,0.5]];portConstraint=eastwest;rotatable=0;" vertex="1" parent="uFnU2rJ3wCaOMNAWH8qr-20">
          <mxGeometry y="30" width="140" height="30" as="geometry" />
        </mxCell>
        <mxCell id="uFnU2rJ3wCaOMNAWH8qr-22" value="函数2" style="text;strokeColor=none;fillColor=none;align=center;verticalAlign=middle;spacingLeft=4;spacingRight=4;overflow=hidden;points=[[0,0.5],[1,0.5]];portConstraint=eastwest;rotatable=0;" vertex="1" parent="uFnU2rJ3wCaOMNAWH8qr-20">
          <mxGeometry y="60" width="140" height="30" as="geometry" />
        </mxCell>
        <mxCell id="uFnU2rJ3wCaOMNAWH8qr-26" value="函数k" style="text;strokeColor=none;fillColor=none;align=center;verticalAlign=middle;spacingLeft=4;spacingRight=4;overflow=hidden;points=[[0,0.5],[1,0.5]];portConstraint=eastwest;rotatable=0;" vertex="1" parent="uFnU2rJ3wCaOMNAWH8qr-20">
          <mxGeometry y="90" width="140" height="30" as="geometry" />
        </mxCell>
        <mxCell id="uFnU2rJ3wCaOMNAWH8qr-27" value="" style="shape=curlyBracket;whiteSpace=wrap;html=1;rounded=1;flipH=1;direction=east;" vertex="1" parent="1">
          <mxGeometry x="230" y="380" width="20" height="170" as="geometry" />
        </mxCell>
        <mxCell id="uFnU2rJ3wCaOMNAWH8qr-29" value="" style="shape=table;html=1;whiteSpace=wrap;startSize=0;container=1;collapsible=0;childLayout=tableLayout;columnLines=0;rowLines=0;" vertex="1" parent="1">
          <mxGeometry x="270" y="430" width="250" height="80" as="geometry" />
        </mxCell>
        <mxCell id="uFnU2rJ3wCaOMNAWH8qr-30" value="" style="shape=tableRow;horizontal=0;startSize=0;swimlaneHead=0;swimlaneBody=0;top=0;left=0;bottom=0;right=0;collapsible=0;dropTarget=0;fillColor=none;points=[[0,0.5],[1,0.5]];portConstraint=eastwest;" vertex="1" parent="uFnU2rJ3wCaOMNAWH8qr-29">
          <mxGeometry width="250" height="40" as="geometry" />
        </mxCell>
        <mxCell id="uFnU2rJ3wCaOMNAWH8qr-31" value="(摘要,函数1)" style="shape=partialRectangle;html=1;whiteSpace=wrap;connectable=0;fillColor=none;top=0;left=0;bottom=0;right=0;overflow=hidden;fontSize=12;" vertex="1" parent="uFnU2rJ3wCaOMNAWH8qr-30">
          <mxGeometry width="83" height="40" as="geometry">
            <mxRectangle width="83" height="40" as="alternateBounds" />
          </mxGeometry>
        </mxCell>
        <mxCell id="uFnU2rJ3wCaOMNAWH8qr-32" value="(摘要,函数2)" style="shape=partialRectangle;html=1;whiteSpace=wrap;connectable=0;fillColor=none;top=0;left=0;bottom=0;right=0;overflow=hidden;fontSize=12;" vertex="1" parent="uFnU2rJ3wCaOMNAWH8qr-30">
          <mxGeometry x="83" width="86" height="40" as="geometry">
            <mxRectangle width="86" height="40" as="alternateBounds" />
          </mxGeometry>
        </mxCell>
        <mxCell id="uFnU2rJ3wCaOMNAWH8qr-33" value="(摘要,函数k)" style="shape=partialRectangle;html=1;whiteSpace=wrap;connectable=0;fillColor=none;top=0;left=0;bottom=0;right=0;overflow=hidden;fontSize=12;" vertex="1" parent="uFnU2rJ3wCaOMNAWH8qr-30">
          <mxGeometry x="169" width="81" height="40" as="geometry">
            <mxRectangle width="81" height="40" as="alternateBounds" />
          </mxGeometry>
        </mxCell>
        <mxCell id="uFnU2rJ3wCaOMNAWH8qr-34" value="" style="shape=tableRow;horizontal=0;startSize=0;swimlaneHead=0;swimlaneBody=0;top=0;left=0;bottom=0;right=0;collapsible=0;dropTarget=0;fillColor=none;points=[[0,0.5],[1,0.5]];portConstraint=eastwest;" vertex="1" parent="uFnU2rJ3wCaOMNAWH8qr-29">
          <mxGeometry y="40" width="250" height="40" as="geometry" />
        </mxCell>
        <mxCell id="uFnU2rJ3wCaOMNAWH8qr-35" value="(描述,函数1)" style="shape=partialRectangle;html=1;whiteSpace=wrap;connectable=0;fillColor=none;top=0;left=0;bottom=0;right=0;overflow=hidden;fontSize=12;" vertex="1" parent="uFnU2rJ3wCaOMNAWH8qr-34">
          <mxGeometry width="83" height="40" as="geometry">
            <mxRectangle width="83" height="40" as="alternateBounds" />
          </mxGeometry>
        </mxCell>
        <mxCell id="uFnU2rJ3wCaOMNAWH8qr-36" value="(描述,函数2)" style="shape=partialRectangle;html=1;whiteSpace=wrap;connectable=0;fillColor=none;top=0;left=0;bottom=0;right=0;overflow=hidden;fontSize=12;" vertex="1" parent="uFnU2rJ3wCaOMNAWH8qr-34">
          <mxGeometry x="83" width="86" height="40" as="geometry">
            <mxRectangle width="86" height="40" as="alternateBounds" />
          </mxGeometry>
        </mxCell>
        <mxCell id="uFnU2rJ3wCaOMNAWH8qr-37" value="(描述,函数k)" style="shape=partialRectangle;html=1;whiteSpace=wrap;connectable=0;fillColor=none;top=0;left=0;bottom=0;right=0;overflow=hidden;fontSize=12;" vertex="1" parent="uFnU2rJ3wCaOMNAWH8qr-34">
          <mxGeometry x="169" width="81" height="40" as="geometry">
            <mxRectangle width="81" height="40" as="alternateBounds" />
          </mxGeometry>
        </mxCell>
        <mxCell id="uFnU2rJ3wCaOMNAWH8qr-49" value="CodeSearchNet" style="swimlane;fontStyle=0;childLayout=stackLayout;horizontal=1;startSize=30;horizontalStack=0;resizeParent=1;resizeParentMax=0;resizeLast=0;collapsible=1;marginBottom=0;" vertex="1" parent="1">
          <mxGeometry x="270" y="550" width="250" height="120" as="geometry">
            <mxRectangle x="520" y="280" width="70" height="30" as="alternateBounds" />
          </mxGeometry>
        </mxCell>
        <mxCell id="uFnU2rJ3wCaOMNAWH8qr-50" value="(摘要,函数1)" style="text;strokeColor=none;fillColor=none;align=center;verticalAlign=middle;spacingLeft=4;spacingRight=4;overflow=hidden;points=[[0,0.5],[1,0.5]];portConstraint=eastwest;rotatable=0;" vertex="1" parent="uFnU2rJ3wCaOMNAWH8qr-49">
          <mxGeometry y="30" width="250" height="30" as="geometry" />
        </mxCell>
        <mxCell id="uFnU2rJ3wCaOMNAWH8qr-51" value="(摘要,函数2)" style="text;strokeColor=none;fillColor=none;align=center;verticalAlign=middle;spacingLeft=4;spacingRight=4;overflow=hidden;points=[[0,0.5],[1,0.5]];portConstraint=eastwest;rotatable=0;" vertex="1" parent="uFnU2rJ3wCaOMNAWH8qr-49">
          <mxGeometry y="60" width="250" height="30" as="geometry" />
        </mxCell>
        <mxCell id="uFnU2rJ3wCaOMNAWH8qr-52" value="(摘要,函数n)" style="text;strokeColor=none;fillColor=none;align=center;verticalAlign=middle;spacingLeft=4;spacingRight=4;overflow=hidden;points=[[0,0.5],[1,0.5]];portConstraint=eastwest;rotatable=0;" vertex="1" parent="uFnU2rJ3wCaOMNAWH8qr-49">
          <mxGeometry y="90" width="250" height="30" as="geometry" />
        </mxCell>
        <mxCell id="uFnU2rJ3wCaOMNAWH8qr-54" value="" style="shape=curlyBracket;whiteSpace=wrap;html=1;rounded=1;flipH=1;direction=east;" vertex="1" parent="1">
          <mxGeometry x="540" y="470" width="20" height="170" as="geometry" />
        </mxCell>
        <mxCell id="uFnU2rJ3wCaOMNAWH8qr-55" value="MIX数据集" style="strokeWidth=2;html=1;shape=mxgraph.flowchart.multi-document;whiteSpace=wrap;" vertex="1" parent="1">
          <mxGeometry x="580" y="520" width="88" height="60" as="geometry" />
        </mxCell>
      </root>
    </mxGraphModel>
  </diagram>
</mxfile>
